<svg width="512" height="512" viewBox="0 0 512 512" fill="none" xmlns="http://www.w3.org/2000/svg">
  <!-- Background Circle -->
  <circle cx="256" cy="256" r="256" fill="#0f0f0f"/>
  
  <!-- Outer Ring -->
  <circle cx="256" cy="256" r="240" stroke="#007a33" stroke-width="8" fill="none"/>
  
  <!-- Inner Circle -->
  <circle cx="256" cy="256" r="200" fill="#1a1a1a"/>
  
  <!-- Chart Bars -->
  <rect x="180" y="320" width="20" height="80" fill="#007a33" rx="2"/>
  <rect x="210" y="280" width="20" height="120" fill="#007a33" rx="2"/>
  <rect x="240" y="240" width="20" height="160" fill="#007a33" rx="2"/>
  <rect x="270" y="200" width="20" height="200" fill="#007a33" rx="2"/>
  <rect x="300" y="260" width="20" height="140" fill="#007a33" rx="2"/>
  <rect x="330" y="300" width="20" height="100" fill="#007a33" rx="2"/>
  
  <!-- Trend Line -->
  <path d="M160 280 L200 260 L240 220 L280 180 L320 200 L360 240" stroke="#ffffff" stroke-width="4" fill="none" stroke-linecap="round" stroke-linejoin="round"/>
  
  <!-- Dollar Sign -->
  <text x="256" y="140" text-anchor="middle" fill="#007a33" font-family="Arial, sans-serif" font-size="48" font-weight="bold">$</text>
  
  <!-- Calendar Icon -->
  <rect x="220" y="80" width="72" height="40" fill="#007a33" rx="4"/>
  <rect x="220" y="100" width="72" height="20" fill="#1a1a1a" rx="2"/>
  <rect x="230" y="85" width="8" height="8" fill="#ffffff" rx="1"/>
  <rect x="245" y="85" width="8" height="8" fill="#ffffff" rx="1"/>
  <rect x="260" y="85" width="8" height="8" fill="#ffffff" rx="1"/>
  <rect x="275" y="85" width="8" height="8" fill="#ffffff" rx="1"/>
  
  <!-- Sparkle Effects -->
  <circle cx="120" cy="120" r="3" fill="#007a33"/>
  <circle cx="400" cy="150" r="2" fill="#007a33"/>
  <circle cx="380" cy="380" r="2.5" fill="#007a33"/>
  <circle cx="140" cy="400" r="2" fill="#007a33"/>
</svg>
